<mxfile host="app.diagrams.net" agent="Mozilla/5.0 (Windows NT 10.0; Win64; x64) AppleWebKit/537.36 (KHTML, like Gecko) Chrome/136.0.0.0 Safari/537.36" version="27.0.3">
  <diagram name="第 1 页" id="pnYERcN3gMjSIuE6DzLB">
    <mxGraphModel dx="189" dy="1173" grid="0" gridSize="10" guides="1" tooltips="1" connect="1" arrows="1" fold="1" page="0" pageScale="1" pageWidth="850" pageHeight="1100" math="0" shadow="0">
      <root>
        <mxCell id="0" />
        <mxCell id="1" parent="0" />
        <mxCell id="a1szCFsNDwzxV1m5Zwac-42" value="用户界面/客户端" style="rounded=1;whiteSpace=wrap;html=1;fillColor=#f8cecc;strokeColor=#b85450;fontSize=20;" parent="1" vertex="1">
          <mxGeometry x="528" y="-624.5" width="160" height="60" as="geometry" />
        </mxCell>
        <mxCell id="a1szCFsNDwzxV1m5Zwac-43" value="Pulse 系统" style="rounded=1;whiteSpace=wrap;html=1;fillColor=#f5f5f5;strokeColor=#666666;verticalAlign=top;fontStyle=1;fontSize=20;dashed=1;" parent="1" vertex="1">
          <mxGeometry x="417" y="-506" width="737" height="480" as="geometry" />
        </mxCell>
        <mxCell id="a1szCFsNDwzxV1m5Zwac-44" value="Pulse Aggregator&#xa;(事件聚合服务)" style="rounded=1;whiteSpace=wrap;html=1;fillColor=#e1d5e7;strokeColor=#9673a6;fontSize=20;" parent="1" vertex="1">
          <mxGeometry x="916" y="-624.5" width="141" height="59" as="geometry" />
        </mxCell>
        <mxCell id="a1szCFsNDwzxV1m5Zwac-45" value="Raft 集群" style="rounded=1;whiteSpace=wrap;html=1;fillColor=#dae8fc;strokeColor=#6c8ebf;verticalAlign=top;align=center;fontSize=20;" parent="1" vertex="1">
          <mxGeometry x="457" y="-466" width="600" height="180" as="geometry" />
        </mxCell>
        <mxCell id="a1szCFsNDwzxV1m5Zwac-46" value="Leader Server&lt;br&gt;• 调度器&lt;br&gt;• HTTP API&lt;br&gt;• FSM&lt;br&gt;• 执行器" style="rounded=1;whiteSpace=wrap;html=1;fillColor=#ffe6cc;strokeColor=#d79b00;align=left;spacingLeft=5;fontSize=20;" parent="1" vertex="1">
          <mxGeometry x="477" y="-436" width="180" height="130" as="geometry" />
        </mxCell>
        <mxCell id="a1szCFsNDwzxV1m5Zwac-47" value="Follower Servers&lt;br&gt;• 复制状态&lt;br&gt;• 参与选举&lt;br&gt;• 执行器" style="rounded=1;whiteSpace=wrap;html=1;fillColor=#d5e8d4;strokeColor=#82b366;align=left;spacingLeft=5;fontSize=20;" parent="1" vertex="1">
          <mxGeometry x="857" y="-436" width="140" height="130" as="geometry" />
        </mxCell>
        <mxCell id="a1szCFsNDwzxV1m5Zwac-48" value="专用 Agent 节点&lt;br&gt;&lt;br&gt;• 执行器&lt;br&gt;• 任务执行管理&lt;br&gt;• 事件报告" style="rounded=1;whiteSpace=wrap;html=1;fillColor=#d5e8d4;strokeColor=#82b366;align=left;spacingLeft=5;fontSize=20;" parent="1" vertex="1">
          <mxGeometry x="827" y="-189" width="200" height="130" as="geometry" />
        </mxCell>
        <mxCell id="a1szCFsNDwzxV1m5Zwac-49" value="HTTP API&#xa;(任务管理)" style="endArrow=classic;startArrow=classic;html=1;exitX=0.25;exitY=1;exitDx=0;exitDy=0;entryX=0.5;entryY=0;entryDx=0;entryDy=0;fontSize=20;labelBackgroundColor=none;" parent="1" source="a1szCFsNDwzxV1m5Zwac-42" target="a1szCFsNDwzxV1m5Zwac-46" edge="1">
          <mxGeometry x="0.2991" width="50" height="50" relative="1" as="geometry">
            <mxPoint x="767" y="-256" as="sourcePoint" />
            <mxPoint x="817" y="-306" as="targetPoint" />
            <Array as="points" />
            <mxPoint as="offset" />
          </mxGeometry>
        </mxCell>
        <mxCell id="a1szCFsNDwzxV1m5Zwac-50" value="WebSocket&#xa;(实时事件)" style="endArrow=classic;html=1;exitX=0;exitY=0.5;exitDx=0;exitDy=0;entryX=1;entryY=0.5;entryDx=0;entryDy=0;fontSize=20;labelBackgroundColor=none;" parent="1" source="a1szCFsNDwzxV1m5Zwac-44" target="a1szCFsNDwzxV1m5Zwac-42" edge="1">
          <mxGeometry x="0.0222" y="30" width="50" height="50" relative="1" as="geometry">
            <mxPoint x="767" y="-256" as="sourcePoint" />
            <mxPoint x="817" y="-306" as="targetPoint" />
            <Array as="points" />
            <mxPoint as="offset" />
          </mxGeometry>
        </mxCell>
        <mxCell id="a1szCFsNDwzxV1m5Zwac-51" value="Raft协议&#xa;(日志复制)" style="endArrow=classic;startArrow=classic;html=1;exitX=1;exitY=0.5;exitDx=0;exitDy=0;entryX=0;entryY=0.5;entryDx=0;entryDy=0;fontSize=20;labelBackgroundColor=none;" parent="1" source="a1szCFsNDwzxV1m5Zwac-46" target="a1szCFsNDwzxV1m5Zwac-47" edge="1">
          <mxGeometry x="-0.01" y="33" width="50" height="50" relative="1" as="geometry">
            <mxPoint x="767" y="-256" as="sourcePoint" />
            <mxPoint x="817" y="-306" as="targetPoint" />
            <mxPoint as="offset" />
          </mxGeometry>
        </mxCell>
        <mxCell id="a1szCFsNDwzxV1m5Zwac-52" value="Serf (Gossip)" style="endArrow=classic;startArrow=classic;html=1;exitX=1;exitY=0.25;exitDx=0;exitDy=0;entryX=0;entryY=0.25;entryDx=0;entryDy=0;dashed=1;fontSize=20;labelBackgroundColor=none;" parent="1" source="a1szCFsNDwzxV1m5Zwac-46" target="a1szCFsNDwzxV1m5Zwac-47" edge="1">
          <mxGeometry x="-0.06" y="-45" width="50" height="50" relative="1" as="geometry">
            <mxPoint x="767" y="-256" as="sourcePoint" />
            <mxPoint x="817" y="-306" as="targetPoint" />
            <mxPoint y="1" as="offset" />
          </mxGeometry>
        </mxCell>
        <mxCell id="a1szCFsNDwzxV1m5Zwac-53" value="Serf (Gossip)" style="endArrow=classic;startArrow=classic;html=1;exitX=0.75;exitY=1;exitDx=0;exitDy=0;entryX=0;entryY=0.25;entryDx=0;entryDy=0;dashed=1;fontSize=20;labelBackgroundColor=none;" parent="1" source="a1szCFsNDwzxV1m5Zwac-46" target="a1szCFsNDwzxV1m5Zwac-48" edge="1">
          <mxGeometry x="0.1568" y="12" width="50" height="50" relative="1" as="geometry">
            <mxPoint x="767" y="-256" as="sourcePoint" />
            <mxPoint x="817" y="-306" as="targetPoint" />
            <Array as="points">
              <mxPoint x="612" y="-156" />
            </Array>
            <mxPoint x="1" as="offset" />
          </mxGeometry>
        </mxCell>
        <mxCell id="a1szCFsNDwzxV1m5Zwac-54" value="Serf (Gossip)" style="endArrow=classic;startArrow=classic;html=1;exitX=0.5;exitY=1;exitDx=0;exitDy=0;entryX=0.5;entryY=0;entryDx=0;entryDy=0;dashed=1;fontSize=20;labelBackgroundColor=none;" parent="1" source="a1szCFsNDwzxV1m5Zwac-47" target="a1szCFsNDwzxV1m5Zwac-48" edge="1">
          <mxGeometry x="0.1429" width="50" height="50" relative="1" as="geometry">
            <mxPoint x="767" y="-256" as="sourcePoint" />
            <mxPoint x="817" y="-306" as="targetPoint" />
            <mxPoint as="offset" />
          </mxGeometry>
        </mxCell>
        <mxCell id="a1szCFsNDwzxV1m5Zwac-55" value="gRPC&#xa;(任务分发)" style="endArrow=classic;html=1;exitX=1;exitY=0.75;exitDx=0;exitDy=0;entryX=0;entryY=0.75;entryDx=0;entryDy=0;fontSize=20;labelBackgroundColor=none;" parent="1" source="a1szCFsNDwzxV1m5Zwac-46" target="a1szCFsNDwzxV1m5Zwac-48" edge="1">
          <mxGeometry x="-0.1415" y="46" width="50" height="50" relative="1" as="geometry">
            <mxPoint x="767" y="-256" as="sourcePoint" />
            <mxPoint x="817" y="-306" as="targetPoint" />
            <Array as="points">
              <mxPoint x="727" y="-338" />
              <mxPoint x="727" y="-91" />
            </Array>
            <mxPoint as="offset" />
          </mxGeometry>
        </mxCell>
        <mxCell id="a1szCFsNDwzxV1m5Zwac-56" value="gRPC&#xa;(执行结果回传)" style="endArrow=classic;html=1;exitX=0;exitY=0.5;exitDx=0;exitDy=0;entryX=0.25;entryY=1;entryDx=0;entryDy=0;fontSize=20;labelBackgroundColor=none;" parent="1" source="a1szCFsNDwzxV1m5Zwac-48" target="a1szCFsNDwzxV1m5Zwac-46" edge="1">
          <mxGeometry x="-0.1592" y="30" width="50" height="50" relative="1" as="geometry">
            <mxPoint x="767" y="-256" as="sourcePoint" />
            <mxPoint x="817" y="-306" as="targetPoint" />
            <Array as="points">
              <mxPoint x="519" y="-124" />
            </Array>
            <mxPoint as="offset" />
          </mxGeometry>
        </mxCell>
        <mxCell id="a1szCFsNDwzxV1m5Zwac-57" value="gRPC&#xa;(事件流)" style="endArrow=classic;html=1;exitX=0.883;exitY=0.009;exitDx=0;exitDy=0;entryX=0.5;entryY=1;entryDx=0;entryDy=0;fontSize=20;exitPerimeter=0;labelBackgroundColor=none;" parent="1" source="a1szCFsNDwzxV1m5Zwac-45" target="a1szCFsNDwzxV1m5Zwac-44" edge="1">
          <mxGeometry x="-0.157" width="50" height="50" relative="1" as="geometry">
            <mxPoint x="767" y="-256" as="sourcePoint" />
            <mxPoint x="817" y="-306" as="targetPoint" />
            <Array as="points" />
            <mxPoint as="offset" />
          </mxGeometry>
        </mxCell>
        <mxCell id="a1szCFsNDwzxV1m5Zwac-58" value="gRPC&#xa;(事件流)" style="endArrow=classic;html=1;exitX=1;exitY=0.5;exitDx=0;exitDy=0;entryX=1;entryY=0.5;entryDx=0;entryDy=0;fontSize=20;labelBackgroundColor=none;" parent="1" source="a1szCFsNDwzxV1m5Zwac-48" target="a1szCFsNDwzxV1m5Zwac-44" edge="1">
          <mxGeometry width="50" height="50" relative="1" as="geometry">
            <mxPoint x="767" y="-256" as="sourcePoint" />
            <mxPoint x="817" y="-306" as="targetPoint" />
            <Array as="points">
              <mxPoint x="1093" y="-124" />
              <mxPoint x="1091" y="-595" />
            </Array>
          </mxGeometry>
        </mxCell>
      </root>
    </mxGraphModel>
  </diagram>
</mxfile>
